<svg width="24" height="24" viewBox="0 0 24 24" fill="none" xmlns="http://www.w3.org/2000/svg">
<path d="M18 12C21.3137 12 24.1197 14.8451 22.531 17.7532C22.3607 18.0649 22.1761 18.3698 21.9776 18.6668C20.6591 20.6402 18.7849 22.1783 16.5922 23.0866C14.3995 23.9948 11.9867 24.2324 9.65892 23.7694C7.33114 23.3064 5.19295 22.1635 3.51472 20.4853C1.83649 18.8071 0.693599 16.6689 0.230577 14.3411C-0.232446 12.0133 0.005194 9.60051 0.913446 7.4078C1.8217 5.21509 3.35977 3.34094 5.33316 2.02236C5.63019 1.82389 5.93509 1.63935 6.24683 1.46903C9.15487 -0.119675 12 2.68629 12 6C12 9.31371 14.6863 12 18 12Z" fill="#0A0908"/>
</svg>
