<svg width="133" height="32" viewBox="0 0 133 32" fill="none" xmlns="http://www.w3.org/2000/svg">
<path d="M24 16C28.4183 16 32.1596 19.7935 30.0413 23.6709C29.8142 24.0866 29.5681 24.4931 29.3035 24.8891C27.5454 27.5203 25.0466 29.5711 22.1229 30.7821C19.1993 31.9931 15.9823 32.3099 12.8786 31.6926C9.77486 31.0752 6.92393 29.5513 4.68629 27.3137C2.44865 25.0761 0.924799 22.2251 0.307435 19.1214C-0.309928 16.0177 0.00692533 12.8007 1.21793 9.87707C2.42893 6.95345 4.47969 4.45459 7.11088 2.69649C7.50693 2.43185 7.91345 2.1858 8.32911 1.95871C12.2065 -0.159567 16 3.58172 16 8C16 12.4183 19.5817 16 24 16Z" fill="#0A0908"/>
<path d="M50.725 16.7625H56.95V24.25C56.025 24.925 55.0375 25.4208 53.9875 25.7375C52.9458 26.0458 51.8417 26.2 50.675 26.2C49.1833 26.2 47.8333 25.9708 46.625 25.5125C45.4167 25.0458 44.3833 24.4 43.525 23.575C42.6667 22.75 42.0042 21.7708 41.5375 20.6375C41.0708 19.5042 40.8375 18.2667 40.8375 16.925C40.8375 15.5667 41.0583 14.3208 41.5 13.1875C41.95 12.0542 42.5875 11.0792 43.4125 10.2625C44.2375 9.44583 45.2333 8.80833 46.4 8.35C47.575 7.89167 48.8875 7.6625 50.3375 7.6625C51.0875 7.6625 51.7875 7.725 52.4375 7.85C53.0875 7.96667 53.6875 8.13333 54.2375 8.35C54.7875 8.55833 55.2917 8.80833 55.75 9.1C56.2083 9.39167 56.625 9.7125 57 10.0625L55.9125 11.7375C55.7458 12.0042 55.5292 12.1667 55.2625 12.225C54.9958 12.2833 54.7042 12.2167 54.3875 12.025C54.0875 11.8417 53.7917 11.6792 53.5 11.5375C53.2167 11.3875 52.9125 11.2583 52.5875 11.15C52.2625 11.0417 51.9083 10.9583 51.525 10.9C51.1417 10.8417 50.7 10.8125 50.2 10.8125C49.3583 10.8125 48.5958 10.9583 47.9125 11.25C47.2292 11.5417 46.6458 11.9542 46.1625 12.4875C45.6875 13.0208 45.3208 13.6625 45.0625 14.4125C44.8042 15.1625 44.675 16 44.675 16.925C44.675 17.925 44.8167 18.8208 45.1 19.6125C45.3833 20.3958 45.7833 21.0583 46.3 21.6C46.8167 22.1417 47.4333 22.5542 48.15 22.8375C48.875 23.1208 49.6792 23.2625 50.5625 23.2625C51.1625 23.2625 51.6958 23.2042 52.1625 23.0875C52.6375 22.9625 53.1 22.7958 53.55 22.5875V19.5375H51.5C51.2583 19.5375 51.0667 19.475 50.925 19.35C50.7917 19.2167 50.725 19.05 50.725 18.85V16.7625ZM66.1402 16.8875C67.3152 16.8875 68.1736 16.6042 68.7152 16.0375C69.2652 15.4708 69.5402 14.6958 69.5402 13.7125C69.5402 13.2625 69.4694 12.8542 69.3277 12.4875C69.1944 12.1125 68.9861 11.7958 68.7027 11.5375C68.4277 11.2708 68.0777 11.0667 67.6527 10.925C67.2277 10.7833 66.7236 10.7125 66.1402 10.7125H63.7652V16.8875H66.1402ZM66.1402 7.8625C67.3819 7.8625 68.4527 8.00833 69.3527 8.3C70.2611 8.59167 71.0069 9 71.5902 9.525C72.1736 10.0417 72.6027 10.6583 72.8777 11.375C73.1611 12.0917 73.3027 12.8708 73.3027 13.7125C73.3027 14.6042 73.1569 15.4208 72.8652 16.1625C72.5736 16.9042 72.1319 17.5417 71.5402 18.075C70.9486 18.6083 70.2027 19.025 69.3027 19.325C68.4027 19.6167 67.3486 19.7625 66.1402 19.7625H63.7652V26H60.0152V7.8625H66.1402ZM93.2637 21.5375C93.472 21.5375 93.647 21.6125 93.7887 21.7625L95.2762 23.35C94.5428 24.2833 93.6303 24.9917 92.5387 25.475C91.4553 25.9583 90.1637 26.2 88.6637 26.2C87.3053 26.2 86.0845 25.9708 85.0012 25.5125C83.9178 25.0458 82.997 24.4 82.2387 23.575C81.4803 22.75 80.897 21.7708 80.4887 20.6375C80.0803 19.5042 79.8762 18.2667 79.8762 16.925C79.8762 16.025 79.972 15.1708 80.1637 14.3625C80.3637 13.5458 80.6512 12.7958 81.0262 12.1125C81.4012 11.4292 81.8512 10.8125 82.3762 10.2625C82.9095 9.7125 83.5095 9.24583 84.1762 8.8625C84.8428 8.47083 85.5678 8.175 86.3512 7.975C87.1428 7.76667 87.9845 7.6625 88.8762 7.6625C89.5428 7.6625 90.172 7.72083 90.7637 7.8375C91.3637 7.95417 91.922 8.11667 92.4387 8.325C92.9553 8.53333 93.4303 8.7875 93.8637 9.0875C94.3053 9.37917 94.7012 9.7 95.0512 10.05L93.7887 11.775C93.7137 11.8833 93.6178 11.9792 93.5012 12.0625C93.3845 12.1458 93.2262 12.1875 93.0262 12.1875C92.8262 12.1875 92.622 12.1167 92.4137 11.975C92.2137 11.8333 91.9637 11.675 91.6637 11.5C91.372 11.325 91.0012 11.1667 90.5512 11.025C90.1095 10.8833 89.547 10.8125 88.8637 10.8125C88.1053 10.8125 87.4095 10.95 86.7762 11.225C86.1428 11.5 85.597 11.9 85.1387 12.425C84.6887 12.9417 84.3387 13.5792 84.0887 14.3375C83.8387 15.0958 83.7137 15.9583 83.7137 16.925C83.7137 17.9 83.847 18.7708 84.1137 19.5375C84.3887 20.2958 84.7595 20.9375 85.2262 21.4625C85.7012 21.9875 86.2512 22.3875 86.8762 22.6625C87.5095 22.9292 88.1845 23.0625 88.9012 23.0625C89.3262 23.0625 89.7095 23.0417 90.0512 23C90.4012 22.9583 90.722 22.8875 91.0137 22.7875C91.3137 22.6875 91.5928 22.5583 91.8512 22.4C92.1178 22.2417 92.3845 22.0417 92.6512 21.8C92.7428 21.725 92.8387 21.6625 92.9387 21.6125C93.0387 21.5625 93.147 21.5375 93.2637 21.5375ZM103.656 20.6125C102.814 20.6542 102.114 20.7292 101.556 20.8375C100.997 20.9375 100.551 21.0708 100.218 21.2375C99.8932 21.4042 99.6598 21.5958 99.5182 21.8125C99.3848 22.0208 99.3182 22.25 99.3182 22.5C99.3182 23 99.4557 23.3542 99.7307 23.5625C100.014 23.7708 100.406 23.875 100.906 23.875C101.481 23.875 101.976 23.775 102.393 23.575C102.818 23.3667 103.239 23.0458 103.656 22.6125V20.6125ZM96.6307 14.9C97.389 14.2167 98.2265 13.7083 99.1432 13.375C100.06 13.0333 101.051 12.8625 102.118 12.8625C102.885 12.8625 103.568 12.9875 104.168 13.2375C104.776 13.4875 105.289 13.8375 105.706 14.2875C106.131 14.7292 106.456 15.2583 106.681 15.875C106.906 16.4917 107.018 17.1667 107.018 17.9V26H105.443C105.118 26 104.868 25.9542 104.693 25.8625C104.526 25.7708 104.389 25.5792 104.281 25.2875L104.006 24.4625C103.681 24.7458 103.364 24.9958 103.056 25.2125C102.756 25.4292 102.443 25.6125 102.118 25.7625C101.793 25.9042 101.443 26.0125 101.068 26.0875C100.701 26.1625 100.289 26.2 99.8307 26.2C99.264 26.2 98.7473 26.125 98.2807 25.975C97.814 25.825 97.4098 25.6042 97.0682 25.3125C96.7348 25.0125 96.4765 24.6417 96.2932 24.2C96.1098 23.7583 96.0182 23.25 96.0182 22.675C96.0182 22.2 96.139 21.725 96.3807 21.25C96.6223 20.775 97.0348 20.3458 97.6182 19.9625C98.2098 19.5708 98.9932 19.25 99.9682 19C100.951 18.7417 102.181 18.5958 103.656 18.5625V17.9C103.656 17.0917 103.485 16.5 103.143 16.125C102.801 15.7417 102.31 15.55 101.668 15.55C101.193 15.55 100.797 15.6083 100.481 15.725C100.164 15.8333 99.8848 15.9542 99.6432 16.0875C99.4098 16.2125 99.189 16.3333 98.9807 16.45C98.7723 16.5583 98.5307 16.6125 98.2557 16.6125C98.014 16.6125 97.8098 16.5542 97.6432 16.4375C97.4848 16.3125 97.3515 16.1667 97.2432 16L96.6307 14.9ZM113.186 7.3625V26H109.736V7.3625H113.186ZM125.409 15.9875C125.309 16.1208 125.209 16.225 125.109 16.3C125.009 16.3667 124.867 16.4 124.684 16.4C124.517 16.4 124.355 16.3542 124.196 16.2625C124.046 16.1625 123.871 16.0583 123.671 15.95C123.471 15.8333 123.234 15.7292 122.959 15.6375C122.684 15.5375 122.342 15.4875 121.934 15.4875C121.417 15.4875 120.967 15.5833 120.584 15.775C120.209 15.9583 119.896 16.225 119.646 16.575C119.396 16.925 119.209 17.35 119.084 17.85C118.967 18.35 118.909 18.9125 118.909 19.5375C118.909 20.8542 119.171 21.8625 119.696 22.5625C120.23 23.2625 120.955 23.6125 121.871 23.6125C122.188 23.6125 122.459 23.5875 122.684 23.5375C122.917 23.4792 123.117 23.4083 123.284 23.325C123.459 23.2417 123.609 23.15 123.734 23.05C123.859 22.95 123.975 22.8583 124.084 22.775C124.2 22.6917 124.313 22.625 124.421 22.575C124.538 22.5167 124.667 22.4875 124.809 22.4875C125.075 22.4875 125.284 22.5875 125.434 22.7875L126.421 24.0375C126.055 24.4625 125.663 24.8167 125.246 25.1C124.83 25.375 124.396 25.5958 123.946 25.7625C123.505 25.9208 123.055 26.0292 122.596 26.0875C122.138 26.1542 121.684 26.1875 121.234 26.1875C120.442 26.1875 119.692 26.0417 118.984 25.75C118.275 25.45 117.655 25.0167 117.121 24.45C116.588 23.8833 116.163 23.1875 115.846 22.3625C115.538 21.5375 115.384 20.5958 115.384 19.5375C115.384 18.5958 115.521 17.7208 115.796 16.9125C116.071 16.1042 116.475 15.4042 117.009 14.8125C117.542 14.2208 118.2 13.7583 118.984 13.425C119.775 13.0833 120.688 12.9125 121.721 12.9125C122.705 12.9125 123.567 13.0708 124.309 13.3875C125.05 13.7042 125.717 14.1625 126.309 14.7625L125.409 15.9875ZM127.681 24.1875C127.681 23.9125 127.731 23.6542 127.831 23.4125C127.939 23.1625 128.085 22.95 128.268 22.775C128.451 22.5917 128.664 22.45 128.906 22.35C129.156 22.2417 129.426 22.1875 129.718 22.1875C130.001 22.1875 130.268 22.2417 130.518 22.35C130.768 22.45 130.985 22.5917 131.168 22.775C131.351 22.95 131.493 23.1625 131.593 23.4125C131.701 23.6542 131.756 23.9125 131.756 24.1875C131.756 24.4708 131.701 24.7333 131.593 24.975C131.493 25.2167 131.351 25.4292 131.168 25.6125C130.985 25.7875 130.768 25.925 130.518 26.025C130.268 26.125 130.001 26.175 129.718 26.175C129.426 26.175 129.156 26.125 128.906 26.025C128.664 25.925 128.451 25.7875 128.268 25.6125C128.085 25.4292 127.939 25.2167 127.831 24.975C127.731 24.7333 127.681 24.4708 127.681 24.1875Z" fill="#0A0908"/>
</svg>
