<svg width="32" height="32" viewBox="0 0 32 32" fill="none" xmlns="http://www.w3.org/2000/svg">
<path d="M24 16C28.4183 16 32.1596 19.7935 30.0413 23.6709C29.8142 24.0866 29.5681 24.4931 29.3035 24.8891C27.5454 27.5203 25.0466 29.5711 22.1229 30.7821C19.1993 31.9931 15.9823 32.3099 12.8786 31.6926C9.77486 31.0752 6.92393 29.5513 4.68629 27.3137C2.44865 25.0761 0.924799 22.2251 0.307435 19.1214C-0.309928 16.0177 0.00692533 12.8007 1.21793 9.87707C2.42893 6.95345 4.47969 4.45459 7.11088 2.69649C7.50693 2.43185 7.91345 2.1858 8.32911 1.95871C12.2065 -0.159567 16 3.58172 16 8C16 12.4183 19.5817 16 24 16Z" fill="#0A0908"/>
</svg>
